#!OML:ASF H:\Terrain\Patient Classification 1\Terrain2\Thursday\justin.ASF
:FULLY-SPECIFIED
:DEGREES
3028
root 29.8104 17.9642 -0.0145644 113.643 -96.5645 243.11
lowerback 10.4651 0.368274 -7.16163
upperback 4.41437 -0.349078 0.457397
thorax -1.20265 -0.321569 4.55262
lowerneck -15.72 -1.17412 -9.8774
upperneck 35.7804 -1.27703 4.08417
head 15.2435 -1.72417 3.14073
rclavicle -3.77691e-015 -5.56597e-015
rhumerus -31.9744 -6.61077 -80.0063
rradius 33.9097
rwrist -12.6622
rhand -20.7915 12.8268
rfingers 7.12502
rthumb 5.5757 -17.0798
lclavicle -3.77691e-015 -5.56597e-015
lhumerus -36.5595 6.48217 83.7418
lradius 28.4873
lwrist -0.183152
lhand -16.3089 22.1109
lfingers 7.12502
lthumb 9.90219 51.858
rfemur -61.6001 -13.2345 15.2931
rtibia 105.915
rfoot -17.8172 6.5792
rtoes -5.28985
lfemur 13.8019 -3.8315 -29.004
ltibia -1.43125e-014
lfoot -2.64595 -9.21139
ltoes 27.1042
3029
root 29.7796 17.929 -0.0166843 117.088 -96.192 239.608
lowerback 10.5835 0.269799 -6.62208
upperback 4.45138 -0.433553 0.57625
thorax -1.2248 -0.359682 4.38268
lowerneck -15.7623 -1.12314 -9.71331
upperneck 35.8307 -1.17951 3.88988
head 15.2663 -1.68955 3.04669
rclavicle -1.67973e-014 -2.78299e-015
rhumerus -31.9506 -6.79904 -80.0041
rradius 33.634
rwrist -12.3255
rhand -20.4721 12.5864
rfingers 7.12502
rthumb 5.88406 -17.3119
lclavicle -1.67973e-014 -2.78299e-015
lhumerus -36.5159 6.17877 83.7847
lradius 28.6858
lwrist 0.272434
lhand -16.1304 22.4497
lfingers 7.12502
lthumb 10.0743 52.1886
rfemur -62.5302 -13.0708 16.2317
rtibia 105.401
rfoot -17.5263 5.83025
rtoes -4.60085
lfemur 13.6656 -3.96027 -28.8139
ltibia -1.27222e-014
lfoot -3.48092 -8.77886
ltoes 15.7338
3030
root 29.7471 17.9393 -0.0146201 120.58 -95.8225 236.008
lowerback 10.7676 0.212778 -6.04247
upperback 4.52234 -0.46507 0.64855
thorax -1.2556 -0.372271 4.13575
lowerneck -15.7996 -1.1025 -9.67311
upperneck 35.8718 -1.20412 4.01064
head 15.2956 -1.679 3.08851
rclavicle -2.38542e-015 7.55382e-015
rhumerus -31.9409 -6.63135 -80.1749
rradius 33.4184
rwrist -12.4178
rhand -20.0798 12.2855
rfingers 7.12502
rthumb 6.26273 -17.6019
lclavicle -2.38542e-015 7.55382e-015
lhumerus -36.333 5.67872 83.8463
lradius 28.7507
lwrist 0.922398
lhand -16.2173 22.8613
lfingers 7.12502
lthumb 9.99051 52.6042
rfemur -63.0851 -12.8741 17.014
rtibia 104.614
rfoot -17.0062 5.44404
rtoes -2.29941
lfemur 13.911 -4.10122 -28.274
ltibia -7.31528e-014
lfoot -3.51598 -8.78931
ltoes 16.0995
3031
root 29.7117 17.9344 -0.0185353 120.445 -95.9757 236.135
lowerback 10.7788 0.276515 -6.3416
upperback 4.59858 -0.411828 0.67868
thorax -1.18338 -0.355136 4.33015
lowerneck -15.735 -1.15952 -9.83615
upperneck 35.7409 -1.28167 4.14576
head 15.2273 -1.70745 3.15886
rclavicle -1.02374e-014 -4.77083e-015
rhumerus -31.9233 -6.66388 -80.0909
rradius 33.1684
rwrist -12.3894
rhand -19.8291 12.2185
rfingers 7.12502
rthumb 6.50481 -17.6616
lclavicle -1.02374e-014 -4.77083e-015
lhumerus -36.2981 5.43655 84.0871
lradius 29.0354
lwrist 1.34714
lhand -16.1877 22.6016
lfingers 7.12502
lthumb 10.0191 52.3431
rfemur -63.7695 -12.7362 17.1169
rtibia 103.655
rfoot -16.5517 5.04092
rtoes -0.92144
lfemur 14.0362 -4.16136 -28.4188
ltibia -3.49861e-014
lfoot -3.48953 -8.75208
ltoes 16.9928
3032
root 29.6742 17.8909 -0.0216024 120.29 -96.121 236.314
lowerback 10.6877 0.318983 -6.62781
upperback 4.69779 -0.376727 0.731829
thorax -1.0292 -0.350983 4.54229
lowerneck -15.7179 -1.19476 -9.94404
upperneck 35.6281 -1.2672 4.08969
head 15.1702 -1.71606 3.15401
rclavicle -2.88238e-015 -7.15625e-015
rhumerus -31.8111 -6.92871 -79.875
rradius 32.8634
rwrist -12.1744
rhand -19.6714 12.1033
rfingers 7.12502
rthumb 6.65708 -17.7721
lclavicle -2.88238e-015 -7.15625e-015
lhumerus -36.3214 5.25416 84.3432
lradius 29.5391
lwrist 1.55492
lhand -16.0469 22.1535
lfingers 7.12502
lthumb 10.1549 51.8885
rfemur -64.6377 -12.5576 17.2114
rtibia 102.653
rfoot -16.1619 4.62464
rtoes 0.260257
lfemur 14.1795 -4.21354 -28.5732
ltibia -3.97569e-014
lfoot -3.56395 -8.67798
ltoes 17.9741
